<svg
   width="174.66667"
   height="174.66667"
   viewBox="0 0 174.66667 174.66667"
   sodipodi:docname="desicones.eps"
   xmlns:inkscape="http://www.inkscape.org/namespaces/inkscape"
   xmlns:sodipodi="http://sodipodi.sourceforge.net/DTD/sodipodi-0.dtd"
   xmlns="http://www.w3.org/2000/svg"
   xmlns:svg="http://www.w3.org/2000/svg">
  <defs/>
  <sodipodi:namedview
     pagecolor="#ffffff"
     bordercolor="#000000"
     borderopacity="0.25"
     inkscape:showpageshadow="2"
     inkscape:pageopacity="0.0"
     inkscape:pagecheckerboard="0"
     inkscape:deskcolor="#d1d1d1" />
  <g
     id="g8"
     inkscape:groupmode="layer"
     inkscape:label="ink_ext_XXXXXX"
     transform="matrix(1.3333333,0,0,-1.3333333,0,174.66667)">
    <g
       id="g10"
       transform="scale(0.1)">
      <path
         d="M 1290,655 C 1290,304.301 1005.7,20 655,20 304.297,20 20,304.301 20,655 c 0,350.7 284.297,635 635,635 350.7,0 635,-284.3 635,-635 z"
         style="fill:none;stroke:#231f20;stroke-width:40;stroke-linecap:butt;stroke-linejoin:miter;stroke-miterlimit:10;stroke-dasharray:none;stroke-opacity:1"
         id="path12" />
      <path
         d="m 346.543,655 c 0,-13.613 -11.035,-24.648 -24.648,-24.648 -13.614,0 -24.649,11.035 -24.649,24.648 0,13.613 11.035,24.648 24.649,24.648 13.613,0 24.648,-11.035 24.648,-24.648"
         style="fill:#000000;fill-opacity:1;fill-rule:nonzero;stroke:none"
         id="path14" />
      <path
         d="m 517.355,815.992 c 0,-13.613 -11.042,-24.652 -24.656,-24.652 -13.613,0 -24.648,11.039 -24.648,24.652 0,13.613 11.035,24.649 24.648,24.649 13.614,0 24.656,-11.036 24.656,-24.649"
         style="fill:#000000;fill-opacity:1;fill-rule:nonzero;stroke:none"
         id="path16" />
      <path
         d="m 524.043,496.047 c 0,-13.613 -11.039,-24.652 -24.652,-24.652 -13.614,0 -24.649,11.039 -24.649,24.652 0,13.609 11.035,24.644 24.649,24.644 13.613,0 24.652,-11.035 24.652,-24.644"
         style="fill:#000000;fill-opacity:1;fill-rule:nonzero;stroke:none"
         id="path18" />
      <path
         d="m 679.648,655.145 c 0,-13.614 -11.035,-24.649 -24.648,-24.649 -13.613,0 -24.648,11.035 -24.648,24.649 0,13.617 11.035,24.652 24.648,24.652 13.613,0 24.648,-11.035 24.648,-24.652"
         style="fill:#000000;fill-opacity:1;fill-rule:nonzero;stroke:none"
         id="path20" />
      <path
         d="m 994.355,653.457 c 0,-17.937 -14.542,-32.48 -32.48,-32.48 -17.937,0 -32.48,14.543 -32.48,32.48 0,17.938 14.543,32.481 32.48,32.481 17.938,0 32.48,-14.543 32.48,-32.481"
         style="fill:#000000;fill-opacity:1;fill-rule:nonzero;stroke:none"
         id="path22" />
      <path
         d="m 687.48,655.145 c 0,-17.938 -14.542,-32.477 -32.48,-32.477 -17.937,0 -32.484,14.539 -32.484,32.477 0,17.941 14.547,32.484 32.484,32.484 17.938,0 32.48,-14.543 32.48,-32.484"
         style="fill:#000000;fill-opacity:1;fill-rule:nonzero;stroke:none"
         id="path24" />
      <path
         d="m 531.875,496.047 c 0,-17.942 -14.547,-32.484 -32.484,-32.484 -17.942,0 -32.481,14.542 -32.481,32.484 0,17.937 14.539,32.476 32.481,32.476 17.937,0 32.484,-14.539 32.484,-32.476"
         style="fill:#000000;fill-opacity:1;fill-rule:nonzero;stroke:none"
         id="path26" />
      <path
         d="m 525.188,815.992 c 0,-17.941 -14.547,-32.484 -32.489,-32.484 -17.937,0 -32.48,14.543 -32.48,32.484 0,17.938 14.543,32.481 32.48,32.481 17.942,0 32.489,-14.543 32.489,-32.481"
         style="fill:#000000;fill-opacity:1;fill-rule:nonzero;stroke:none"
         id="path28" />
      <path
         d="m 354.379,655.145 c 0,-17.938 -14.543,-32.477 -32.484,-32.477 -17.942,0 -32.485,14.539 -32.485,32.477 0,17.941 14.543,32.484 32.485,32.484 17.941,0 32.484,-14.543 32.484,-32.484"
         style="fill:#000000;fill-opacity:1;fill-rule:nonzero;stroke:none"
         id="path30" />
      <path
         d="M 694.695,796.938 837.07,655 501.348,319.277 164.609,656.016 496.227,987.637 610.961,872.898"
         style="fill:none;stroke:#000000;stroke-width:40;stroke-linecap:butt;stroke-linejoin:miter;stroke-miterlimit:10;stroke-dasharray:none;stroke-opacity:1"
         id="path32" />
      <path
         d="M 618.203,509.973 475.828,651.914 811.555,987.637 1148.29,650.895 816.68,319.277 701.941,434.016"
         style="fill:none;stroke:#000000;stroke-width:40;stroke-linecap:butt;stroke-linejoin:miter;stroke-miterlimit:10;stroke-dasharray:none;stroke-opacity:1"
         id="path34" />
    </g>
  </g>
</svg>
